<svg width="100" height="100" viewBox="0 0 100 100" fill="none" xmlns="http://www.w3.org/2000/svg">
<path d="M0 25C0 21.6848 1.31696 18.5054 3.66117 16.1612C6.00537 13.817 9.18479 12.5 12.5 12.5H87.5C90.8152 12.5 93.9946 13.817 96.3388 16.1612C98.683 18.5054 100 21.6848 100 25V75C100 78.3152 98.683 81.4946 96.3388 83.8388C93.9946 86.183 90.8152 87.5 87.5 87.5H12.5C9.18479 87.5 6.00537 86.183 3.66117 83.8388C1.31696 81.4946 0 78.3152 0 75V25ZM12.5 18.75C10.8424 18.75 9.25268 19.4085 8.08058 20.5806C6.90848 21.7527 6.25 23.3424 6.25 25V31.25H93.75V25C93.75 23.3424 93.0915 21.7527 91.9194 20.5806C90.7473 19.4085 89.1576 18.75 87.5 18.75H12.5ZM93.75 43.75H6.25V75C6.25 76.6576 6.90848 78.2473 8.08058 79.4194C9.25268 80.5915 10.8424 81.25 12.5 81.25H87.5C89.1576 81.25 90.7473 80.5915 91.9194 79.4194C93.0915 78.2473 93.75 76.6576 93.75 75V43.75Z" fill="black"/>
<path d="M12.5 62.5C12.5 60.8424 13.1585 59.2527 14.3306 58.0806C15.5027 56.9085 17.0924 56.25 18.75 56.25H25C26.6576 56.25 28.2473 56.9085 29.4194 58.0806C30.5915 59.2527 31.25 60.8424 31.25 62.5V68.75C31.25 70.4076 30.5915 71.9973 29.4194 73.1694C28.2473 74.3415 26.6576 75 25 75H18.75C17.0924 75 15.5027 74.3415 14.3306 73.1694C13.1585 71.9973 12.5 70.4076 12.5 68.75V62.5Z" fill="black"/>
</svg>
