<svg width="85" height="95" viewBox="0 0 85 95" fill="none" xmlns="http://www.w3.org/2000/svg">
<path d="M54.6987 52.7318C54.0287 51.6151 53.247 50.7217 52.4653 50.275C51.5719 49.7167 50.6786 49.3817 49.7852 49.27C48.7802 49.1583 47.7751 49.1583 46.7701 49.3817C45.7651 49.605 44.6483 49.8284 43.5316 50.0517V49.94L38.9532 42.0114C39.8465 41.5647 40.7399 41.3414 41.6332 41.2297C42.5266 41.118 43.5316 41.3414 44.3133 41.6764L45.3184 37.9913C43.9783 37.5446 42.5266 37.5446 41.1866 37.7679C39.7349 37.9913 38.5065 38.5496 37.2781 39.2196L35.938 36.7629L34.1513 37.7679L35.4914 40.2247C34.598 40.783 33.928 41.453 33.258 42.3464C32.5879 43.1281 32.1412 44.0215 31.9179 45.0265C31.5829 45.9199 31.4712 46.9249 31.5829 47.9299C31.6946 48.935 31.9179 49.94 32.4763 50.8334C33.1463 51.9501 33.8163 52.7318 34.598 53.2901C35.3797 53.8485 36.2731 54.1835 37.1664 54.4069C38.0598 54.6302 39.0648 54.6302 40.0699 54.5185C41.0749 54.4069 42.0799 54.1835 43.1966 53.8485L47.9985 62.1121C46.9934 62.5588 45.9884 62.8938 44.8717 62.8938C43.755 62.8938 42.6383 62.6705 41.6332 62.1121L40.4049 65.9089C41.9682 66.5789 43.5316 66.8023 45.095 66.4673C46.6584 66.2439 48.1101 65.6856 49.5619 64.7922L50.9019 67.249L52.6886 66.2439L51.3486 63.7872C52.2419 63.1172 53.0236 62.4471 53.8053 61.5538C54.4754 60.6604 55.0337 59.767 55.2571 58.8737C55.5921 57.8686 55.7037 56.8636 55.5921 55.8586C55.5921 54.7418 55.2571 53.7368 54.6987 52.7318ZM39.7348 50.8334C39.1765 50.8334 38.6181 50.8334 38.1714 50.7217C37.7248 50.61 37.1664 50.3867 36.8314 50.1633C36.3847 49.94 36.0497 49.4934 35.7147 48.935C35.0447 47.8183 34.933 46.8132 35.268 45.8082C35.603 44.8032 36.1614 43.9098 37.1664 43.1281L41.4099 50.4984C40.8516 50.7217 40.2932 50.8334 39.7348 50.8334ZM52.0186 58.092C51.7953 58.6503 51.5719 59.097 51.2369 59.6553C50.9019 60.2137 50.4552 60.5487 49.8969 60.9954L45.43 53.2901C45.9884 53.1785 46.6584 53.0668 47.2168 52.9551C47.7751 52.8434 48.4452 52.8434 48.8918 52.9551C49.4502 53.0668 49.8969 53.1785 50.4552 53.5135C50.9019 53.7368 51.3486 54.1835 51.6836 54.8535C52.0186 55.4119 52.242 55.9702 52.242 56.6403C52.242 56.9753 52.1303 57.5336 52.0186 58.092Z" fill="#999999"/>
<path d="M30.1912 27.0472C32.5412 25.6903 33.3714 22.7286 32.0454 20.432C30.7194 18.1354 27.7394 17.3735 25.3894 18.7304C23.0394 20.0872 22.2092 23.0489 23.5352 25.3455C24.8612 27.6421 27.8412 28.404 30.1912 27.0472Z" fill="#999999"/>
<path d="M84.0682 60.3254L54.4755 9.06859L14.6091 0.693298L0.203613 40.448L29.7963 91.7048C31.583 94.8316 35.4915 95.8366 38.6183 94.0499L81.7232 69.1474C84.8499 67.249 85.855 63.3405 84.0682 60.3254ZM80.2714 66.4673L37.1666 91.3698C35.4915 92.2632 33.4815 91.7048 32.4764 90.1414L3.55373 40.113L16.6192 4.15509L52.5771 11.7487L81.4998 61.7771C82.3932 63.4522 81.8348 65.5739 80.2714 66.4673Z" fill="#999999"/>
</svg>
