<svg width="87" height="86" viewBox="0 0 87 86" fill="none" xmlns="http://www.w3.org/2000/svg">
<path d="M66.5531 41.5676C66.2925 40.3949 65.9016 39.3524 65.3804 38.31C64.8592 37.2676 64.2077 36.3555 63.4259 35.5736C62.644 34.7918 61.7319 34.1403 60.6895 33.7494C59.6471 33.2282 58.344 33.0979 57.041 33.0979C55.6077 33.0979 54.4349 33.3585 53.3925 33.7494C52.3501 34.2706 51.438 34.7918 50.6562 35.5736C49.8743 36.3555 49.2228 37.2676 48.7016 38.31C48.1804 39.3524 47.7895 40.3949 47.5289 41.5676C47.2683 42.7403 47.0077 43.9131 46.8774 45.0858C46.7471 46.2585 46.7471 47.4312 46.7471 48.4736C46.7471 50.0373 46.8774 51.7312 47.138 53.5555C47.3986 55.3797 47.9198 57.0737 48.7016 58.6373C49.4834 60.2009 50.5259 61.504 51.8289 62.4161C53.1319 63.4585 54.8259 63.9797 57.041 63.9797C59.1259 63.9797 60.8198 63.4585 62.2531 62.4161C63.6865 61.3737 64.5986 60.0706 65.3804 58.6373C66.1622 57.0737 66.6834 55.3797 66.944 53.5555C67.2046 51.7312 67.3349 50.0373 67.3349 48.4736C67.3349 47.4312 67.3349 46.2585 67.2046 45.0858C67.0743 43.7828 66.944 42.7403 66.5531 41.5676ZM63.1653 51.9918C63.0349 53.2949 62.7743 54.5979 62.3834 55.9009C61.9925 57.204 61.341 58.2464 60.5592 59.0282C59.7774 59.9403 58.6046 60.3312 57.1713 60.3312C55.738 60.3312 54.6955 59.9403 53.7834 59.0282C53.0016 58.1161 52.3501 57.0737 51.9592 55.9009C51.5683 54.5979 51.3077 53.2949 51.1774 51.9918C51.0471 50.6888 51.0471 49.5161 51.0471 48.4736C51.0471 47.8221 51.0471 47.0403 51.0471 46.1282C51.0471 45.2161 51.1774 44.4343 51.3077 43.5221C51.438 42.61 51.6986 41.8282 51.9592 40.9161C52.2198 40.004 52.6107 39.3524 53.1319 38.7009C53.6531 38.0494 54.1743 37.5282 54.8259 37.1373C55.4774 36.7464 56.2592 36.4858 57.1713 36.4858C58.0834 36.4858 58.8652 36.7464 59.5168 37.1373C60.1683 37.5282 60.8198 38.0494 61.2107 38.7009C61.7319 39.3524 61.9925 40.1343 62.3834 40.9161C62.7743 41.6979 62.9046 42.61 63.035 43.5221C63.1653 44.4343 63.2956 45.3464 63.2956 46.1282C63.2956 47.0403 63.2956 47.6918 63.2956 48.4736C63.2956 49.3858 63.2956 50.5585 63.1653 51.9918Z" fill="#999999"/>
<path d="M39.1896 50.2979C38.6684 49.6464 38.0169 48.9948 37.3654 48.6039C36.5836 48.213 35.8017 47.8221 34.8896 47.6918V47.5615C36.4533 47.1706 37.626 46.2585 38.5381 45.0858C39.4502 43.7827 39.9715 42.4797 39.9715 40.916C39.9715 39.4827 39.7108 38.31 39.1896 37.2676C38.6684 36.2252 38.0169 35.4433 37.2351 34.6615C36.4533 34.01 35.4108 33.4888 34.2381 33.0979C33.0654 32.707 32.023 32.5767 30.7199 32.5767C28.7654 32.5767 26.9411 33.0979 25.2472 34.01C23.6836 34.9221 22.3805 36.3554 21.5987 38.31L25.7684 39.7433C26.1593 38.7009 26.9411 37.9191 27.723 37.2676C28.6351 36.6161 29.5472 36.3554 30.7199 36.3554C32.1533 36.3554 33.326 36.7463 34.3684 37.5282C35.2805 38.31 35.8017 39.613 35.8017 41.1767C35.8017 41.9585 35.6715 42.61 35.4108 43.1312C35.1502 43.7827 34.7593 44.1736 34.2381 44.5645C33.7169 44.9554 32.9351 45.216 31.8927 45.4767C30.8502 45.7373 29.6775 45.7373 28.1139 45.7373V49.2554C29.026 49.2554 30.0684 49.2554 30.9805 49.3857C32.023 49.516 32.8048 49.7767 33.7169 50.1676C34.629 50.5585 35.1502 51.0797 35.6715 51.8615C36.1927 52.6433 36.4533 53.5555 36.4533 54.8585C36.4533 55.6403 36.323 56.4221 35.9321 57.0736C35.6714 57.7251 35.1502 58.2464 34.629 58.7676C34.1078 59.2888 33.4563 59.5494 32.8048 59.81C32.1533 60.0706 31.3714 60.2009 30.5896 60.2009C29.026 60.2009 27.8533 59.81 27.0714 59.1585C26.2896 58.507 25.6381 57.3342 25.1169 55.9009L20.8169 57.2039C21.4684 59.4191 22.6411 61.113 24.4654 62.1554C26.1593 63.1978 28.2442 63.7191 30.4593 63.7191C31.7624 63.7191 33.0654 63.5888 34.2381 63.1979C35.4108 62.807 36.4533 62.2857 37.3654 61.6342C38.2775 60.8524 39.0593 60.0706 39.5805 58.8978C40.1018 57.7251 40.3623 56.5524 40.3623 55.1191C40.3623 54.2069 40.2321 53.2948 39.9715 52.513C40.1018 51.7312 39.7108 51.0797 39.1896 50.2979Z" fill="#999999"/>
<path d="M80.1045 -0.390015H7.39546C3.74698 -0.390015 0.75 2.60696 0.75 6.25545V78.9646C0.75 82.613 3.74698 85.61 7.39546 85.61H80.1045C83.753 85.61 86.75 82.613 86.75 78.9646V6.25545C86.75 2.60696 83.753 -0.390015 80.1045 -0.390015ZM63.4258 8.99182C63.4258 10.2948 62.3833 11.4676 60.95 11.4676C59.5167 11.4676 58.4742 10.4252 58.4742 8.99182C58.4742 7.68879 59.5167 6.51607 60.95 6.51607C62.3833 6.51607 63.4258 7.68879 63.4258 8.99182ZM29.6773 8.99182C29.6773 10.2948 28.6349 11.4676 27.2015 11.4676C25.7682 11.4676 24.7257 10.4252 24.7257 8.99182C24.7257 7.68879 25.7682 6.51607 27.2015 6.51607C28.6349 6.51607 29.6773 7.68879 29.6773 8.99182ZM80.1045 81.7009H7.39546C5.83183 81.7009 4.65909 80.5282 4.65909 78.9646V16.1585H82.8409V78.9646C82.8409 80.3979 81.6682 81.7009 80.1045 81.7009Z" fill="#999999"/>
</svg>
