<svg width="100" height="100" viewBox="0 0 100 100" fill="none" xmlns="http://www.w3.org/2000/svg">
<g clip-path="url(#clip0_16_444)">
<path d="M1.36494e-08 21.875C1.36494e-08 19.3886 0.98772 17.004 2.74587 15.2459C4.50403 13.4877 6.8886 12.5 9.375 12.5H65.625C68.1114 12.5 70.496 13.4877 72.2541 15.2459C74.0123 17.004 75 19.3886 75 21.875V31.25H81.375C82.7796 31.2513 84.166 31.5681 85.4317 32.1772C86.6974 32.7862 87.8101 33.6719 88.6875 34.7688L97.9437 46.3312C99.2756 47.9949 100.001 50.0627 100 52.1937V65.625C100 68.1114 99.0123 70.496 97.2541 72.2541C95.496 74.0123 93.1114 75 90.625 75H87.5C87.5 78.3152 86.183 81.4946 83.8388 83.8388C81.4946 86.183 78.3152 87.5 75 87.5C71.6848 87.5 68.5054 86.183 66.1612 83.8388C63.817 81.4946 62.5 78.3152 62.5 75H31.25C31.2536 76.6662 30.9241 78.3162 30.2808 79.8532C29.6375 81.3901 28.6934 82.783 27.5041 83.9498C26.3147 85.1167 24.9041 86.034 23.3551 86.6478C21.8062 87.2616 20.1501 87.5596 18.4843 87.5242C16.8186 87.4887 15.1767 87.1207 13.6552 86.4416C12.1337 85.7625 10.7634 84.786 9.62468 83.5697C8.486 82.3533 7.60198 80.9216 7.02459 79.3587C6.4472 77.7958 6.18809 76.1332 6.2625 74.4688C4.43155 73.8243 2.84577 72.6275 1.72403 71.0434C0.602285 69.4593 -0.0001047 67.566 1.36494e-08 65.625L1.36494e-08 21.875ZM8.0875 68.475C9.21751 66.625 10.8095 65.1008 12.7069 64.0523C14.6043 63.0037 16.7419 62.467 18.9095 62.4947C21.0772 62.5225 23.2004 63.1138 25.0703 64.2105C26.9403 65.3072 28.4927 66.8716 29.575 68.75H64.175C65.2744 66.8517 66.8517 65.2744 68.75 64.175V21.875C68.75 21.0462 68.4208 20.2513 67.8347 19.6653C67.2487 19.0792 66.4538 18.75 65.625 18.75H9.375C8.5462 18.75 7.75134 19.0792 7.16529 19.6653C6.57924 20.2513 6.25 21.0462 6.25 21.875V65.625C6.24951 66.2265 6.42262 66.8154 6.74856 67.3209C7.0745 67.8264 7.53942 68.2272 8.0875 68.475ZM75 62.5C77.1942 62.5001 79.3496 63.0777 81.2498 64.1748C83.15 65.2719 84.7279 66.8498 85.825 68.75H90.625C91.4538 68.75 92.2487 68.4208 92.8347 67.8347C93.4208 67.2487 93.75 66.4538 93.75 65.625V52.1875C93.7487 51.4783 93.5063 50.7907 93.0625 50.2375L83.8125 38.675C83.5202 38.309 83.1494 38.0134 82.7275 37.81C82.3056 37.6066 81.8434 37.5007 81.375 37.5H75V62.5ZM18.75 68.75C17.0924 68.75 15.5027 69.4085 14.3306 70.5806C13.1585 71.7527 12.5 73.3424 12.5 75C12.5 76.6576 13.1585 78.2473 14.3306 79.4194C15.5027 80.5915 17.0924 81.25 18.75 81.25C20.4076 81.25 21.9973 80.5915 23.1694 79.4194C24.3415 78.2473 25 76.6576 25 75C25 73.3424 24.3415 71.7527 23.1694 70.5806C21.9973 69.4085 20.4076 68.75 18.75 68.75ZM75 68.75C73.3424 68.75 71.7527 69.4085 70.5806 70.5806C69.4085 71.7527 68.75 73.3424 68.75 75C68.75 76.6576 69.4085 78.2473 70.5806 79.4194C71.7527 80.5915 73.3424 81.25 75 81.25C76.6576 81.25 78.2473 80.5915 79.4194 79.4194C80.5915 78.2473 81.25 76.6576 81.25 75C81.25 73.3424 80.5915 71.7527 79.4194 70.5806C78.2473 69.4085 76.6576 68.75 75 68.75Z" fill="black"/>
</g>
<defs>
<clipPath id="clip0_16_444">
<rect width="100" height="100" fill="white"/>
</clipPath>
</defs>
</svg>
