<svg width="21" height="32" viewBox="0 0 21 32" fill="none" xmlns="http://www.w3.org/2000/svg">
<path d="M19.1896 18.2979C18.6684 17.6464 18.0169 16.9948 17.3654 16.6039C16.5836 16.213 15.8017 15.8221 14.8896 15.6918V15.5615C16.4533 15.1706 17.626 14.2585 18.5381 13.0858C19.4502 11.7827 19.9715 10.4797 19.9715 8.91605C19.9715 7.48271 19.7108 6.31 19.1896 5.26758C18.6684 4.22515 18.0169 3.44333 17.2351 2.66152C16.4533 2.01 15.4108 1.48877 14.2381 1.09786C13.0654 0.706955 12.023 0.57666 10.7199 0.57666C8.76539 0.57666 6.94115 1.09788 5.24721 2.01C3.68357 2.92212 2.38054 4.35544 1.59872 6.30999L5.76841 7.74333C6.15932 6.7009 6.94114 5.91909 7.72296 5.26758C8.63508 4.61606 9.5472 4.35544 10.7199 4.35544C12.1533 4.35544 13.326 4.74634 14.3684 5.52816C15.2805 6.30998 15.8017 7.61303 15.8017 9.17667C15.8017 9.95849 15.6715 10.61 15.4108 11.1312C15.1502 11.7827 14.7593 12.1736 14.2381 12.5645C13.7169 12.9554 12.9351 13.216 11.8927 13.4767C10.8502 13.7373 9.67751 13.7373 8.11387 13.7373V17.2554C9.02599 17.2554 10.0684 17.2554 10.9805 17.3857C12.023 17.516 12.8048 17.7767 13.7169 18.1676C14.629 18.5585 15.1502 19.0797 15.6715 19.8615C16.1927 20.6433 16.4533 21.5555 16.4533 22.8585C16.4533 23.6403 16.323 24.4221 15.9321 25.0736C15.6714 25.7251 15.1502 26.2464 14.629 26.7676C14.1078 27.2888 13.4563 27.5494 12.8048 27.81C12.1533 28.0706 11.3714 28.2009 10.5896 28.2009C9.02598 28.2009 7.85326 27.81 7.07144 27.1585C6.28963 26.507 5.63811 25.3342 5.1169 23.9009L0.816895 25.2039C1.46841 27.4191 2.64114 29.113 4.46538 30.1554C6.15932 31.1978 8.24418 31.7191 10.4593 31.7191C11.7624 31.7191 13.0654 31.5888 14.2381 31.1979C15.4108 30.807 16.4533 30.2857 17.3654 29.6342C18.2775 28.8524 19.0593 28.0706 19.5805 26.8978C20.1018 25.7251 20.3623 24.5524 20.3623 23.1191C20.3623 22.2069 20.2321 21.2948 19.9715 20.513C20.1018 19.7312 19.7108 19.0797 19.1896 18.2979Z" fill="#999999"/>
</svg>
