<svg width="22" height="31" viewBox="0 0 22 31" fill="none" xmlns="http://www.w3.org/2000/svg">
<path d="M20.5531 8.5676C20.2925 7.39487 19.9016 6.35245 19.3804 5.31002C18.8592 4.2676 18.2077 3.35547 17.4259 2.57365C16.644 1.79183 15.7319 1.14032 14.6895 0.749416C13.6471 0.228203 12.344 0.0979004 11.041 0.0979004C9.60767 0.0979004 8.43494 0.358506 7.39251 0.749416C6.35009 1.27063 5.43798 1.79183 4.65616 2.57365C3.87434 3.35547 3.22283 4.2676 2.70162 5.31002C2.1804 6.35245 1.78948 7.39487 1.52888 8.5676C1.26827 9.74032 1.00766 10.9131 0.877361 12.0858C0.747058 13.2585 0.74707 14.4312 0.74707 15.4736C0.74707 17.0373 0.877377 18.7312 1.13798 20.5555C1.39859 22.3797 1.9198 24.0737 2.70162 25.6373C3.48343 27.2009 4.52585 28.504 5.82888 29.4161C7.13191 30.4585 8.82585 30.9797 11.041 30.9797C13.1259 30.9797 14.8198 30.4585 16.2531 29.4161C17.6865 28.3737 18.5986 27.0706 19.3804 25.6373C20.1622 24.0737 20.6834 22.3797 20.944 20.5555C21.2046 18.7312 21.3349 17.0373 21.3349 15.4736C21.3349 14.4312 21.3349 13.2585 21.2046 12.0858C21.0743 10.7828 20.944 9.74032 20.5531 8.5676ZM17.1653 18.9918C17.0349 20.2949 16.7743 21.5979 16.3834 22.9009C15.9925 24.204 15.341 25.2464 14.5592 26.0282C13.7774 26.9403 12.6046 27.3312 11.1713 27.3312C9.73798 27.3312 8.69555 26.9403 7.78343 26.0282C7.00161 25.1161 6.3501 24.0737 5.95919 22.9009C5.56828 21.5979 5.30767 20.2949 5.17737 18.9918C5.04706 17.6888 5.04707 16.5161 5.04707 15.4736C5.04707 14.8221 5.04707 14.0403 5.04707 13.1282C5.04707 12.2161 5.17737 11.4343 5.30768 10.5221C5.43798 9.61002 5.69859 8.8282 5.95919 7.91608C6.2198 7.00396 6.6107 6.35243 7.13191 5.70091C7.65312 5.0494 8.17434 4.52821 8.82585 4.1373C9.47737 3.74639 10.2592 3.48579 11.1713 3.48579C12.0834 3.48579 12.8652 3.74639 13.5168 4.1373C14.1683 4.52821 14.8198 5.0494 15.2107 5.70091C15.7319 6.35243 15.9925 7.13426 16.3834 7.91608C16.7743 8.6979 16.9046 9.61002 17.035 10.5221C17.1653 11.4343 17.2956 12.3464 17.2956 13.1282C17.2956 14.0403 17.2956 14.6918 17.2956 15.4736C17.2956 16.3858 17.2956 17.5585 17.1653 18.9918Z" fill="#999999"/>
</svg>
