<svg width="87" height="86" viewBox="0 0 87 86" fill="none" xmlns="http://www.w3.org/2000/svg">
<path d="M80.1045 -0.390015H7.39546C3.74698 -0.390015 0.75 2.60696 0.75 6.25545V78.9646C0.75 82.613 3.74698 85.61 7.39546 85.61H80.1045C83.753 85.61 86.75 82.613 86.75 78.9646V6.25545C86.75 2.60696 83.753 -0.390015 80.1045 -0.390015ZM63.4258 8.99182C63.4258 10.2948 62.3833 11.4676 60.95 11.4676C59.5167 11.4676 58.4742 10.4252 58.4742 8.99182C58.4742 7.68879 59.5167 6.51607 60.95 6.51607C62.3833 6.51607 63.4258 7.68879 63.4258 8.99182ZM29.6773 8.99182C29.6773 10.2948 28.6349 11.4676 27.2015 11.4676C25.7682 11.4676 24.7257 10.4252 24.7257 8.99182C24.7257 7.68879 25.7682 6.51607 27.2015 6.51607C28.6349 6.51607 29.6773 7.68879 29.6773 8.99182ZM80.1045 81.7009H7.39546C5.83183 81.7009 4.65909 80.5282 4.65909 78.9646V16.1585H82.8409V78.9646C82.8409 80.3979 81.6682 81.7009 80.1045 81.7009Z" fill="#999999"/>
</svg>
